<mxfile host="Electron" modified="2023-07-24T15:46:01.351Z" agent="Mozilla/5.0 (Windows NT 10.0; Win64; x64) AppleWebKit/537.36 (KHTML, like Gecko) draw.io/21.6.1 Chrome/112.0.5615.204 Electron/24.6.1 Safari/537.36" etag="HnYHAnZFwKZhUDzPIh3U" version="21.6.1" type="device">
  <diagram name="第 1 页" id="PfYcvIYX4g5qAJ5RWKFP">
    <mxGraphModel dx="860" dy="902" grid="1" gridSize="10" guides="1" tooltips="1" connect="1" arrows="1" fold="1" page="1" pageScale="1" pageWidth="827" pageHeight="1169" math="0" shadow="0">
      <root>
        <mxCell id="0" />
        <mxCell id="1" parent="0" />
        <mxCell id="umD-JYmgDHPZSHhsToj4-1" value="&lt;div style=&quot;&quot;&gt;&lt;span style=&quot;font-size: 20px; color: rgb(255, 36, 116); background-color: initial;&quot;&gt;heap space&lt;/span&gt;&lt;/div&gt;" style="rounded=0;whiteSpace=wrap;html=1;align=center;verticalAlign=top;" vertex="1" parent="1">
          <mxGeometry x="140" y="270" width="500" height="280" as="geometry" />
        </mxCell>
        <mxCell id="umD-JYmgDHPZSHhsToj4-2" value="region" style="rounded=0;whiteSpace=wrap;html=1;fontColor=#FF0D45;fontSize=20;" vertex="1" parent="1">
          <mxGeometry x="160" y="330" width="120" height="60" as="geometry" />
        </mxCell>
        <mxCell id="umD-JYmgDHPZSHhsToj4-4" value="region" style="rounded=0;whiteSpace=wrap;html=1;fontColor=#FF0D45;fontSize=20;" vertex="1" parent="1">
          <mxGeometry x="340" y="330" width="120" height="60" as="geometry" />
        </mxCell>
        <mxCell id="umD-JYmgDHPZSHhsToj4-5" value="region" style="rounded=0;whiteSpace=wrap;html=1;fontColor=#FF0D45;fontSize=20;" vertex="1" parent="1">
          <mxGeometry x="500" y="330" width="120" height="60" as="geometry" />
        </mxCell>
        <mxCell id="umD-JYmgDHPZSHhsToj4-6" value="region" style="rounded=0;whiteSpace=wrap;html=1;fontColor=#FF0D45;fontSize=20;" vertex="1" parent="1">
          <mxGeometry x="160" y="440" width="120" height="60" as="geometry" />
        </mxCell>
        <mxCell id="umD-JYmgDHPZSHhsToj4-16" style="edgeStyle=orthogonalEdgeStyle;rounded=0;orthogonalLoop=1;jettySize=auto;html=1;exitX=0.5;exitY=1;exitDx=0;exitDy=0;entryX=0.5;entryY=0;entryDx=0;entryDy=0;fontFamily=Helvetica;fontSize=20;fontColor=#FF0D45;" edge="1" parent="1" source="umD-JYmgDHPZSHhsToj4-7" target="umD-JYmgDHPZSHhsToj4-9">
          <mxGeometry relative="1" as="geometry" />
        </mxCell>
        <mxCell id="umD-JYmgDHPZSHhsToj4-7" value="region" style="rounded=0;whiteSpace=wrap;html=1;fontColor=#FF0D45;fontSize=20;" vertex="1" parent="1">
          <mxGeometry x="340" y="440" width="120" height="60" as="geometry" />
        </mxCell>
        <mxCell id="umD-JYmgDHPZSHhsToj4-8" value="region" style="rounded=0;whiteSpace=wrap;html=1;fontColor=#FF0D45;fontSize=20;" vertex="1" parent="1">
          <mxGeometry x="500" y="440" width="120" height="60" as="geometry" />
        </mxCell>
        <mxCell id="umD-JYmgDHPZSHhsToj4-9" value="Region" style="rounded=0;whiteSpace=wrap;html=1;strokeColor=default;fontFamily=Helvetica;fontSize=20;fontColor=#FF0D45;fillColor=default;verticalAlign=top;" vertex="1" parent="1">
          <mxGeometry x="230" y="620" width="340" height="210" as="geometry" />
        </mxCell>
        <mxCell id="umD-JYmgDHPZSHhsToj4-10" value="Card&lt;br&gt;512byte" style="rounded=0;whiteSpace=wrap;html=1;strokeColor=default;fontFamily=Helvetica;fontSize=20;fontColor=#FF0D45;fillColor=default;" vertex="1" parent="1">
          <mxGeometry x="247" y="690" width="120" height="50" as="geometry" />
        </mxCell>
        <mxCell id="umD-JYmgDHPZSHhsToj4-11" value="Card&lt;br&gt;512byte" style="rounded=0;whiteSpace=wrap;html=1;strokeColor=default;fontFamily=Helvetica;fontSize=20;fontColor=#FF0D45;fillColor=default;" vertex="1" parent="1">
          <mxGeometry x="427" y="690" width="120" height="50" as="geometry" />
        </mxCell>
        <mxCell id="umD-JYmgDHPZSHhsToj4-12" value="Card&lt;br&gt;512byte" style="rounded=0;whiteSpace=wrap;html=1;strokeColor=default;fontFamily=Helvetica;fontSize=20;fontColor=#FF0D45;fillColor=default;" vertex="1" parent="1">
          <mxGeometry x="247" y="770" width="120" height="50" as="geometry" />
        </mxCell>
        <mxCell id="umD-JYmgDHPZSHhsToj4-13" value="Card&lt;br&gt;512byte" style="rounded=0;whiteSpace=wrap;html=1;strokeColor=default;fontFamily=Helvetica;fontSize=20;fontColor=#FF0D45;fillColor=default;" vertex="1" parent="1">
          <mxGeometry x="427" y="770" width="120" height="50" as="geometry" />
        </mxCell>
      </root>
    </mxGraphModel>
  </diagram>
</mxfile>
